<?xml version="1.0" encoding="UTF-8"?>
<svg version="1.1" xmlns="http://www.w3.org/2000/svg" width="909" height="782">
<path d="M0 0 C299.97 0 599.94 0 909 0 C909 258.06 909 516.12 909 782 C609.03 782 309.06 782 0 782 C0 523.94 0 265.88 0 0 Z " fill="#FEFEFE" transform="translate(0,0)"/>
<path d="M0 0 C1.04607422 -0.02513672 1.04607422 -0.02513672 2.11328125 -0.05078125 C8.83662189 0.89803617 14.64649575 4.21559487 20.375 7.6875 C21.09993652 8.12030273 21.82487305 8.55310547 22.57177734 8.99902344 C30.15583619 13.54785365 37.66177238 18.225062 45.171875 22.89453125 C53.67096651 28.17238832 62.22912386 33.35349116 70.78027344 38.54638672 C75.5847348 41.46505262 80.38595511 44.38903962 85.1875 47.3125 C87.11066451 48.48309358 89.03384159 49.6536665 90.95703125 50.82421875 C94.72552439 53.11805634 98.4937365 55.41235455 102.26171875 57.70703125 C103.18605713 58.2697876 104.11039551 58.83254395 105.06274414 59.41235352 C106.93338945 60.55156498 108.80367124 61.6913736 110.67358398 62.83178711 C115.51589821 65.78288822 120.36444994 68.72298179 125.22605896 71.64216614 C127.77745298 73.17470368 130.32659429 74.71096801 132.87564087 76.24740601 C134.11083778 76.99048698 135.34712227 77.73176354 136.58456421 78.47109985 C152.53152061 88.00054121 152.53152061 88.00054121 154.6875 92.3125 C155.37590864 99.19658644 155.37590864 99.19658644 152.9765625 103.0859375 C148.57714553 108.02224829 142.3698889 110.95120315 136.6875 114.1875 C134.9349482 115.1993176 133.18432791 116.2144179 131.43383789 117.22979736 C130.27367248 117.90237054 129.1127064 118.57356454 127.95092773 119.24334717 C121.78512001 122.80704907 115.73251293 126.54817405 109.6875 130.3125 C113.14885464 133.19102302 116.66928351 135.61733405 120.5390625 137.9140625 C121.63734375 138.56890625 122.735625 139.22375 123.8671875 139.8984375 C125.01553134 140.57828323 126.1639698 141.25796916 127.3125 141.9375 C129.57628485 143.28257396 131.83889438 144.62960948 134.1015625 145.9765625 C135.1013916 146.56904785 136.1012207 147.1615332 137.13134766 147.77197266 C139.01227515 148.90555933 140.86022454 150.09431636 142.6875 151.3125 C145.84996364 151.61226219 145.84996364 151.61226219 149.53526306 151.55732727 C150.2358141 151.55959184 150.93636515 151.56185642 151.65814501 151.56418961 C154.01169019 151.5694974 156.36497364 151.56064473 158.71850586 151.55200195 C160.40389083 151.5531146 162.08927541 151.55517203 163.7746582 151.55810547 C167.40872792 151.56283378 171.04273307 151.56170097 174.67680168 151.55632973 C180.43103064 151.54872596 186.18513499 151.55937058 191.93934631 151.5735321 C208.30405114 151.61128314 224.66870085 151.62949054 241.03344727 151.61791992 C250.0682973 151.61168919 259.10294698 151.62336118 268.13774782 151.65436524 C273.84896822 151.67295975 279.55961858 151.66975674 285.27082908 151.65019763 C288.8398859 151.64327827 292.40863906 151.6573477 295.97763824 151.67714691 C297.62224296 151.68216224 299.26690007 151.6787927 300.91146278 151.66601372 C314.62900335 151.56707755 325.3585234 154.03097614 335.49609375 163.859375 C345.72389636 175.30867988 347.13729418 187.58296243 347.08190918 202.3853302 C347.0868038 204.00987137 347.09299624 205.63440905 347.10036707 207.25894088 C347.11671724 211.70352225 347.11445873 216.14792568 347.1089921 220.59252656 C347.10631582 225.39362059 347.1208649 230.19466783 347.13308716 234.9957428 C347.15411801 244.39419556 347.15868336 253.79258659 347.15689927 263.1910601 C347.15559048 270.83230846 347.15940177 278.47353759 347.16682434 286.11478233 C347.16892359 288.31773986 347.17102119 290.52069739 347.17311716 292.72365493 C347.17468245 294.36848315 347.17468245 294.36848315 347.17627937 296.04654022 C347.19517223 316.77466596 347.19413444 337.5027563 347.18731004 358.23088708 C347.18173511 377.18138015 347.20255961 396.13173801 347.23567051 415.08219949 C347.26942721 434.55383417 347.28457338 454.02540411 347.27995348 473.49706858 C347.27771082 484.42358515 347.28292227 495.34997675 347.30784607 506.27646828 C347.32888471 515.57871128 347.33242567 524.88076078 347.31354648 534.18301181 C347.30440457 538.92597051 347.30319822 543.66856866 347.32390213 548.41149902 C347.3426733 552.75988358 347.33804034 557.10761383 347.31535631 561.45597395 C347.31118601 563.02251877 347.31531738 564.58911437 347.32895225 566.15560541 C347.441524 580.04309173 344.60252404 592.09762644 334.6875 602.3125 C322.65305507 613.7771322 309.78766535 613.90217353 294.07641602 613.84594727 C291.99576203 613.85301355 289.91511318 613.86176154 287.83447266 613.87205505 C282.2083798 613.89447863 276.58256921 613.89162576 270.95644879 613.88273358 C266.24979699 613.87760877 261.54319754 613.88492835 256.83655113 613.89220566 C245.72879641 613.90918226 234.62117915 613.90566123 223.51342773 613.88891602 C212.07473015 613.8719943 200.63641418 613.88783526 189.19775826 613.9201389 C179.35621279 613.94687368 169.51478582 613.95410035 159.6732077 613.94562382 C153.8043104 613.94070632 147.93564265 613.94284669 142.06677437 613.96341133 C136.54668172 613.98182958 131.02713609 613.97573442 125.50707245 613.95121193 C123.48834694 613.94622368 121.46957929 613.94964182 119.45088768 613.96236038 C104.46798489 614.04924775 93.10723326 612.60313182 81.87890625 601.69921875 C72.99546117 592.02402277 70.14374873 582.19523864 70.5 569.1875 C70.51353516 568.23101563 70.52707031 567.27453125 70.54101562 566.2890625 C70.57590778 563.9629189 70.62491661 561.6380347 70.6875 559.3125 C69.73296999 559.31526538 68.77843998 559.31803076 67.79498482 559.32087994 C44.55011243 559.3875312 21.30525246 559.43680226 -1.93969536 559.46793652 C-13.18086014 559.48339368 -24.42196172 559.50446126 -35.66308594 559.53881836 C-45.46287521 559.56875588 -55.2626187 559.58808336 -65.06245244 559.59476548 C-70.24954657 559.59867035 -75.43650976 559.60782346 -80.62356186 559.62969017 C-85.51054087 559.65012405 -90.39733558 559.65631986 -95.28435326 559.65182304 C-97.07332678 559.65264516 -98.86230676 559.65856954 -100.65124321 559.67011642 C-115.50801407 559.76126914 -127.54152754 558.08677104 -139.0625 547.875 C-139.805 547.029375 -140.5475 546.18375 -141.3125 545.3125 C-142.03179687 544.59707031 -142.03179687 544.59707031 -142.765625 543.8671875 C-154.30055015 531.80794758 -153.02480637 517.19250165 -152.94360352 501.60888672 C-152.94874691 499.10120132 -152.95603135 496.59351954 -152.96528625 494.08584595 C-152.98183895 488.0039404 -152.97520428 481.92247243 -152.95719803 475.84060465 C-152.94312645 470.89530158 -152.93928897 465.95008573 -152.9426403 461.00476456 C-152.94311775 460.29878519 -152.94359519 459.59280582 -152.9440871 458.86543313 C-152.94511351 457.43091683 -152.94616887 455.99640056 -152.94725286 454.5618843 C-152.95580368 441.90170619 -152.93919634 429.2416833 -152.90942383 416.58154297 C-152.88057808 404.31520065 -152.87351076 392.04908179 -152.88891602 379.78271484 C-152.90569915 366.40103468 -152.90969185 353.01946041 -152.89220566 339.63777745 C-152.8903614 338.20938628 -152.88852667 336.7809951 -152.88670158 335.35260391 C-152.88533345 334.29860603 -152.88533345 334.29860603 -152.88393768 333.22331526 C-152.87834633 328.28658314 -152.88162621 323.34990296 -152.88824654 318.41317368 C-152.89681134 311.76295485 -152.88374908 305.11300934 -152.85639763 298.46282578 C-152.84952413 296.02561394 -152.84940466 293.58837206 -152.85661316 291.15116119 C-152.86533384 287.81810036 -152.84930624 284.48602439 -152.8271637 281.15304565 C-152.83952485 279.71489229 -152.83952485 279.71489229 -152.85213572 278.24768531 C-152.65926431 262.46105428 -143.21622045 252.89160439 -132.5390625 242.4140625 C-131.12807872 241.01464656 -129.71710025 239.6152252 -128.30644798 238.21547508 C-125.85440969 235.78514871 -123.39572477 233.36156602 -120.9375 230.9375 C-117.97858205 228.01937816 -115.02091379 225.10006179 -112.07089233 222.17294312 C-110.23927636 220.3564374 -108.4031386 218.54447795 -106.56216431 216.73745728 C-105.74065887 215.92255829 -104.91915344 215.1076593 -104.07275391 214.26806641 C-103.34472565 213.55051178 -102.61669739 212.83295715 -101.86660767 212.09365845 C-100.09335057 210.45530807 -100.09335057 210.45530807 -100.3125 208.3125 C-102.07050171 207.00253052 -102.07050171 207.00253052 -104.38671875 205.73046875 C-105.27214355 205.21685791 -106.15756836 204.70324707 -107.06982422 204.17407227 C-108.03678223 203.62162842 -109.00374023 203.06918457 -110 202.5 C-112.0179553 201.32728837 -114.03485568 200.15275988 -116.05078125 198.9765625 C-117.08799316 198.37231445 -118.12520508 197.76806641 -119.19384766 197.14550781 C-124.06323015 194.28349718 -128.88113708 191.34132893 -133.6875 188.375 C-134.53530029 187.85639404 -135.38310059 187.33778809 -136.2565918 186.8034668 C-152.01567519 177.05456203 -152.01567519 177.05456203 -154.3125 171.3125 C-154.8593612 167.64071764 -154.51367329 165.7422793 -152.9375 162.375 C-149.61593924 157.9651463 -144.90068536 155.25350507 -140.3125 152.3125 C-139.61576172 151.86567871 -138.91902344 151.41885742 -138.20117188 150.95849609 C-128.30870577 144.6304118 -118.33585968 138.43088832 -108.3125 132.3125 C-111.59906779 129.71652239 -115.06954475 127.63808759 -118.6953125 125.546875 C-119.95839243 124.81390391 -121.22141124 124.0808275 -122.484375 123.34765625 C-124.45119741 122.20976469 -126.41880315 121.07327152 -128.38769531 119.93896484 C-150.93384101 106.93420218 -150.93384101 106.93420218 -154.3125 100.3125 C-154.98218888 96.37807785 -154.67464418 94.84784357 -152.42578125 91.5234375 C-148.69759626 87.24939144 -143.85310805 84.69660279 -139 81.875 C-136.91580164 80.63556803 -134.8324953 79.39463507 -132.75 78.15234375 C-131.68136719 77.51796387 -130.61273438 76.88358398 -129.51171875 76.22998047 C-124.46286318 73.20390357 -119.48211173 70.07182894 -114.5 66.9375 C-102.91375866 59.67095992 -91.27113752 52.49830439 -79.61669922 45.34179688 C-74.07608257 41.93898872 -68.53793383 38.53217203 -63 35.125 C-61.91912109 34.46024658 -60.83824219 33.79549316 -59.72460938 33.1105957 C-53.82280162 29.47923021 -47.92854622 25.83611458 -42.04223633 22.1796875 C-34.15845548 17.28493032 -26.25478412 12.42434039 -18.3125 7.625 C-17.48121582 7.11936523 -16.64993164 6.61373047 -15.79345703 6.09277344 C-5.71544645 0.03134614 -5.71544645 0.03134614 0 0 Z " fill="#266CF1" transform="translate(362.3125,112.6875)"/>
<path d="M0 0 C50.82 0 101.64 0 154 0 C154 34.98 154 69.96 154 106 C110.11 106 66.22 106 21 106 C21 112.93 21 119.86 21 127 C64.89 127 108.78 127 154 127 C154.20151517 164.04296656 154.20151517 164.04296656 154.24414062 179.57421875 C154.27380072 190.29520638 154.30865528 201.01599742 154.37719727 211.73681641 C154.42709391 219.54500637 154.45930562 227.35303675 154.47044247 235.16138172 C154.4769507 239.29444451 154.49220443 243.42705082 154.52865028 247.55996704 C154.56270911 251.45392172 154.57303331 255.34723398 154.56553841 259.24132347 C154.56690857 260.66672449 154.57678275 262.09214805 154.59602737 263.51741982 C154.69951397 271.58046422 154.56207656 277.79976505 149 284 C143.38328657 289.33587776 138.27554132 290.29771823 130.70793152 290.26742554 C129.4604231 290.27422221 129.4604231 290.27422221 128.18771249 290.28115618 C125.40267297 290.29381 122.61782875 290.29217918 119.83276367 290.29052734 C117.83517709 290.29651199 115.83759282 290.30331739 113.8400116 290.31088257 C108.41431137 290.32855661 102.98867422 290.33323856 97.56294799 290.33451414 C93.032691 290.33641347 88.50244869 290.34377143 83.97219735 290.35085833 C73.28280824 290.36714537 62.59345283 290.37202701 51.90405273 290.37060547 C40.88012725 290.36940406 29.85639756 290.39050502 18.83252162 290.4220928 C9.36569809 290.44825162 -0.10106147 290.45897292 -9.56792086 290.45769465 C-15.2210231 290.45718489 -20.87395137 290.46287619 -26.52701759 290.48405075 C-31.84502472 290.50342626 -37.16269181 290.50356213 -42.48071098 290.48901749 C-44.43016685 290.48692742 -46.37964396 290.49164203 -48.32906342 290.5037384 C-50.99543395 290.51920909 -53.66063466 290.50987095 -56.32698059 290.49447632 C-57.09402071 290.50476344 -57.86106084 290.51505057 -58.6513446 290.52564943 C-65.02820509 290.44457798 -70.17516913 288.43764363 -75.0234375 284.25390625 C-75.46945312 283.69574219 -75.91546875 283.13757813 -76.375 282.5625 C-76.83648437 282.00691406 -77.29796875 281.45132812 -77.7734375 280.87890625 C-81.24589167 275.55963728 -81.25131868 270.84310644 -81.125 264.6875 C-81.11597656 263.85154297 -81.10695313 263.01558594 -81.09765625 262.15429688 C-81.07420989 260.10274031 -81.03834266 258.05133223 -81 256 C-79.62603813 255.99120064 -79.62603813 255.99120064 -78.22431946 255.98222351 C-69.58732812 255.92429261 -60.95059528 255.85221352 -52.31385517 255.76428509 C-47.87372468 255.71957916 -43.433686 255.68032357 -38.9934082 255.65356445 C-34.70736639 255.62753361 -30.42167779 255.58713292 -26.13585472 255.53681374 C-24.50166407 255.52014351 -22.86741232 255.50863018 -21.23314857 255.50238609 C-18.94192196 255.49274648 -16.6515993 255.4646904 -14.3605957 255.43237305 C-13.05709671 255.42126999 -11.75359772 255.41016693 -10.41059875 255.39872742 C-6.79036508 254.97549193 -4.88120037 254.18985615 -2 252 C-0.8506785 249.70135699 -0.87029172 248.40612202 -0.8613348 245.84956169 C-0.85586036 244.9747307 -0.85038591 244.09989971 -0.84474558 243.19855869 C-0.84376747 242.2316473 -0.84278936 241.26473591 -0.84178162 240.26852417 C-0.83684364 239.24592723 -0.83190566 238.22333029 -0.82681805 237.16974556 C-0.81138104 233.72107558 -0.80306568 230.27242429 -0.79467773 226.82373047 C-0.78510408 224.36041091 -0.77509431 221.897093 -0.76467896 219.43377686 C-0.74319365 214.11904318 -0.72476018 208.80431217 -0.70907402 203.48955917 C-0.68638907 195.80526166 -0.65824435 188.12099182 -0.62875474 180.43671776 C-0.58106195 167.97035661 -0.53780235 155.50398414 -0.49731445 143.03759766 C-0.4579681 130.92560953 -0.41653258 118.81363152 -0.37231445 106.70166016 C-0.36956495 105.9478204 -0.36681544 105.19398063 -0.36398262 104.41729724 C-0.34246425 98.52202604 -0.32082446 92.62675527 -0.29914629 86.73148465 C-0.19286745 57.82101012 -0.09718166 28.91050931 0 0 Z " fill="#FEFEFE" transform="translate(534,416)"/>
<path d="M0 0 C3.57673014 1.78531715 6.96602711 3.85303437 10.375 5.9375 C11.35887695 6.52942139 12.34275391 7.12134277 13.35644531 7.73120117 C20.14077635 11.82624285 26.87594331 15.99869882 33.578125 20.2265625 C39.19018389 23.75978831 44.84826876 27.21824717 50.5 30.6875 C59.15147757 36.0001518 67.77564047 41.35343469 76.375 46.75 C88.09749728 54.09913362 99.86736095 61.40327911 111.90625 68.2265625 C113.0096875 68.85304688 114.113125 69.47953125 115.25 70.125 C116.64992188 70.90230469 116.64992188 70.90230469 118.078125 71.6953125 C118.71234375 72.12585938 119.3465625 72.55640625 120 73 C120 73.66 120 74.32 120 75 C118.51318359 76.10644531 118.51318359 76.10644531 116.3984375 77.328125 C115.61001465 77.79057617 114.8215918 78.25302734 114.00927734 78.72949219 C113.13996582 79.23125977 112.2706543 79.73302734 111.375 80.25 C103.95019993 84.61596823 96.62142784 89.09394817 89.375 93.75 C81.3046045 98.92484414 73.17546925 103.99284119 65 109 C56.95354286 113.92968033 48.94686969 118.91129796 41 124 C28.76854495 131.83125965 16.40302834 139.44381152 4 147 C3.11876465 147.55179932 2.2375293 148.10359863 1.32958984 148.67211914 C-1.87476885 150.49862374 -3.3285276 150.60400251 -7 150 C-10.55950542 148.34600973 -13.85426123 146.31597557 -17.1875 144.25 C-18.16146729 143.66017334 -19.13543457 143.07034668 -20.13891602 142.46264648 C-27.05879169 138.25331341 -33.91684 133.94327996 -40.74731445 129.59057617 C-47.87775218 125.04952354 -55.09477898 120.65771185 -62.32324219 116.27490234 C-68.63311881 112.44682665 -74.91934153 108.58346324 -81.1875 104.6875 C-90.88560844 98.66250429 -100.64152762 92.73470455 -110.40893555 86.82299805 C-116.29920083 83.25661738 -122.17326652 79.66948037 -128 76 C-125.24762593 73.0762225 -122.5117656 70.89064761 -119.09765625 68.78515625 C-118.13601562 68.18832031 -117.174375 67.59148437 -116.18359375 66.9765625 C-115.15363281 66.34492188 -114.12367188 65.71328125 -113.0625 65.0625 C-111.45375 64.06669922 -111.45375 64.06669922 -109.8125 63.05078125 C-106.54458997 61.0290754 -103.27246268 59.01432564 -100 57 C-97.3423977 55.35694121 -94.68602158 53.71191604 -92.02978516 52.06665039 C-90.33064456 51.01440322 -88.63109409 49.96281763 -86.93115234 48.91186523 C-80.3381397 44.83504744 -73.76002633 40.734753 -67.1875 36.625 C-66.18662354 35.99924072 -65.18574707 35.37348145 -64.15454102 34.72875977 C-59.0852522 31.55826974 -54.01804759 28.38449159 -48.953125 25.20703125 C-38.71262777 18.78734287 -28.44810648 12.41120082 -18.125 6.125 C-17.13749756 5.52357178 -16.14999512 4.92214355 -15.13256836 4.30249023 C-5.60224906 -1.48440967 -5.60224906 -1.48440967 0 0 Z " fill="#FEFEFE" transform="translate(367,135)"/>
<path d="M0 0 C7.76757694 -0.08122974 15.53499576 -0.14740041 23.302948 -0.18212891 C25.50234391 -0.19392809 27.70171856 -0.21094372 29.90103149 -0.23339844 C32.90032848 -0.26282461 35.89907553 -0.27321631 38.89849854 -0.27807617 C40.16605232 -0.29653595 40.16605232 -0.29653595 41.45921326 -0.31536865 C47.63820061 -0.29209608 53.33056056 0.67161408 58.27349854 4.69848633 C58.94252197 5.55313477 58.94252197 5.55313477 59.62506104 6.42504883 C60.3172876 7.27196289 60.3172876 7.27196289 61.02349854 8.13598633 C64.44910013 13.48167035 64.52799655 18.17240516 64.47711182 24.33837891 C64.47735289 25.28063922 64.47759396 26.22289953 64.47784233 27.19371319 C64.47635271 30.23576575 64.46113595 33.2775715 64.44537354 36.31958008 C64.44243201 38.20088584 64.44039224 40.08219325 64.43927002 41.96350098 C64.42879533 48.92987526 64.40087285 55.89621448 64.37506104 62.86254883 C64.33381104 78.43442383 64.29256104 94.00629883 64.25006104 110.05004883 C13.43006104 110.05004883 -37.38993896 110.05004883 -89.74993896 110.05004883 C-90.90136514 46.72160923 -90.90136514 46.72160923 -90.81243896 24.61254883 C-90.8073734 22.26163841 -90.80282011 19.91072683 -90.79876709 17.55981445 C-90.78825204 12.05653183 -90.77198255 6.55329687 -90.74993896 1.05004883 C-62.94837855 0.68713122 -35.14654946 0.35879324 -7.34404755 0.0765686 C-4.8960262 0.05154229 -2.44801253 0.02587259 0 0 Z " fill="#FEFEFE" transform="translate(623.7499389648438,284.949951171875)"/>
<path d="M0 0 C46.2 0 92.4 0 140 0 C140 35.97 140 71.94 140 109 C93.8 109 47.6 109 0 109 C0 73.03 0 37.06 0 0 Z " fill="#FDFEFE" transform="translate(374,542)"/>
<path d="M0 0 C46.2 0 92.4 0 140 0 C140 34.65 140 69.3 140 105 C93.8 105 47.6 105 0 105 C0 70.35 0 35.7 0 0 Z " fill="#FDFDFE" transform="translate(374,416)"/>
<path d="M0 0 C40.92 0 81.84 0 124 0 C124 35.97 124 71.94 124 109 C106.675 109.061875 89.35 109.12375 71.5 109.1875 C63.30833008 109.22846802 63.30833008 109.22846802 54.95117188 109.27026367 C48.25878906 109.28381348 48.25878906 109.28381348 45.12121582 109.28633118 C42.93988202 109.29092401 40.75855562 109.30144638 38.57727051 109.31672668 C35.26427063 109.33876546 31.95173435 109.34171535 28.63867188 109.34057617 C27.67441032 109.3513705 26.71014877 109.36216482 25.71666718 109.37328625 C18.4382607 109.33990534 11.55886329 108.28557032 6.1875 102.875 C5.64480469 102.35679687 5.10210937 101.83859375 4.54296875 101.3046875 C0.33587775 95.02067816 -0.43889144 88.10108424 -0.34057617 80.71655273 C-0.34111858 79.37678045 -0.34111858 79.37678045 -0.34167194 78.00994205 C-0.33945284 75.15092219 -0.31670043 72.29250708 -0.29296875 69.43359375 C-0.28855167 67.65564252 -0.28549498 65.87768737 -0.28381348 64.09973145 C-0.26815701 57.54559437 -0.22627319 50.99154109 -0.1875 44.4375 C-0.125625 29.773125 -0.06375 15.10875 0 0 Z " fill="#FDFEFE" transform="translate(230,542)"/>
<path d="M0 0 C40.92 0 81.84 0 124 0 C124 34.98 124 69.96 124 106 C83.08 106 42.16 106 0 106 C0 71.02 0 36.04 0 0 Z " fill="#FDFDFE" transform="translate(230,416)"/>
<path d="M0 0 C4.23480794 2.16762953 8.20686882 4.6316829 12.19140625 7.2265625 C13.87590765 8.30790635 15.56080558 9.38863275 17.24609375 10.46875 C18.07077148 10.99952148 18.89544922 11.53029297 19.74511719 12.07714844 C23.07799992 14.20850032 26.44188058 16.28697726 29.81640625 18.3515625 C30.85152344 18.98578125 31.88664063 19.62 32.953125 20.2734375 C33.67113281 20.71171875 34.38914062 21.15 35.12890625 21.6015625 C30.44226517 27.0243795 24.47774384 30.26323985 18.37890625 33.9140625 C16.02616214 35.33837339 13.67701694 36.76856614 11.328125 38.19921875 C10.72959213 38.56304657 10.13105927 38.92687439 9.51438904 39.30172729 C3.34736737 43.05902246 -2.73580671 46.94405701 -8.80859375 50.8515625 C-10.89061496 52.19011978 -12.972646 53.52866177 -15.0546875 54.8671875 C-16.04194824 55.50205078 -17.02920898 56.13691406 -18.04638672 56.79101562 C-22.14131894 59.41573623 -26.25461963 62.01080551 -30.37109375 64.6015625 C-37.72679212 69.2335463 -45.05263009 73.91098974 -52.37109375 78.6015625 C-60.13309151 83.57384217 -67.89766256 88.54181738 -75.68359375 93.4765625 C-76.45960938 93.97027344 -77.235625 94.46398437 -78.03515625 94.97265625 C-78.75058594 95.42511719 -79.46601563 95.87757813 -80.203125 96.34375 C-80.81905518 96.7341748 -81.43498535 97.12459961 -82.06958008 97.52685547 C-87.23153218 100.60625825 -87.23153218 100.60625825 -90.53125 100.58203125 C-95.33085587 99.17302415 -99.12863843 96.61635051 -103.30859375 93.9140625 C-105.19206501 92.7216395 -107.07620327 91.53026951 -108.9609375 90.33984375 C-109.93401855 89.72189941 -110.90709961 89.10395508 -111.90966797 88.46728516 C-116.69429702 85.45292941 -121.53325975 82.52946594 -126.37109375 79.6015625 C-133.66185002 75.17498831 -140.93506987 70.72196459 -148.18359375 66.2265625 C-155.92720442 61.42448251 -163.67585503 56.63079531 -171.43359375 51.8515625 C-172.50262939 51.19212646 -173.57166504 50.53269043 -174.6730957 49.85327148 C-180.65486394 46.17044492 -186.65491669 42.52203647 -192.6796875 38.91015625 C-193.97654256 38.13063606 -195.27333679 37.35101466 -196.57006836 36.57128906 C-199.06273927 35.07251337 -201.56032032 33.58239674 -204.06079102 32.09667969 C-205.18412842 31.4215332 -206.30746582 30.74638672 -207.46484375 30.05078125 C-208.46193359 29.45612061 -209.45902344 28.86145996 -210.48632812 28.2487793 C-212.87109375 26.6015625 -212.87109375 26.6015625 -214.87109375 23.6015625 C-207.86344801 18.6004818 -200.71587527 13.87931578 -193.43359375 9.2890625 C-191.49725175 8.0640298 -189.56104749 6.83877935 -187.625 5.61328125 C-186.78267822 5.08178467 -185.94035645 4.55028809 -185.07250977 4.00268555 C-183.32489149 2.89038863 -181.59473851 1.75065901 -179.87109375 0.6015625 C-175.63749603 0.90983202 -172.670955 2.69501036 -169.1015625 4.890625 C-167.97790283 5.57721191 -166.85424316 6.26379883 -165.6965332 6.97119141 C-164.48377324 7.72279871 -163.27112967 8.47459383 -162.05859375 9.2265625 C-160.79747005 10.00105995 -159.53599053 10.77497831 -158.27416992 11.54833984 C-149.41076868 16.99054557 -140.5975241 22.51339638 -131.7890625 28.04394531 C-124.25662308 32.76309444 -116.67369633 37.39248016 -109.05859375 41.9765625 C-107.98391846 42.6257666 -106.90924316 43.2749707 -105.80200195 43.94384766 C-104.80773193 44.53987793 -103.81346191 45.1359082 -102.7890625 45.75 C-101.91016357 46.27770996 -101.03126465 46.80541992 -100.12573242 47.34912109 C-95.78638942 49.75960616 -91.73788748 50.1875153 -86.87109375 49.6015625 C-79.01408917 47.26642062 -72.27267217 43.0032148 -65.43359375 38.6015625 C-64.38300781 37.93511719 -63.33242188 37.26867187 -62.25 36.58203125 C-60.11777439 35.22868902 -57.9876952 33.87195864 -55.85986328 32.51171875 C-51.70763675 29.85798404 -47.53924252 27.23018171 -43.37109375 24.6015625 C-41.85545853 23.64324532 -40.33983375 22.68491164 -38.82421875 21.7265625 C-32.9313154 18.00524019 -27.02783243 14.30087673 -21.12109375 10.6015625 C-20.10853516 9.96605469 -19.09597656 9.33054687 -18.05273438 8.67578125 C-16.16300433 7.49359246 -14.26872267 6.31863618 -12.36914062 5.15234375 C-10.83584421 4.20047717 -9.31719818 3.22383429 -7.82617188 2.20703125 C-4.98646297 0.34706857 -3.41460296 -0.47386327 0 0 Z " fill="#FDFDFE" transform="translate(452.87109375,256.3984375)"/>
<path d="M0 0 C0 35.31 0 70.62 0 107 C-45.87 107 -91.74 107 -139 107 C-139 87 -139 87 -135.1796875 82.6953125 C-132.65258789 81.33227539 -132.65258789 81.33227539 -129.875 80.125 C-127.93177747 79.10893485 -125.99042583 78.08928508 -124.05078125 77.06640625 C-123.04611816 76.5677002 -122.04145508 76.06899414 -121.00634766 75.55517578 C-116.15208578 73.04407881 -111.63315214 70.05003733 -107.0625 67.0625 C-105.21742099 65.88211898 -103.37106037 64.70373893 -101.5234375 63.52734375 C-100.60916992 62.9432373 -99.69490234 62.35913086 -98.75292969 61.75732422 C-95.13808139 59.4497969 -91.51873689 57.14937714 -87.89941406 54.84887695 C-79.02593419 49.20828987 -70.16570457 43.54735204 -61.3125 37.875 C-51.67138489 31.69920197 -42.00635112 25.56307763 -32.31787109 19.46191406 C-29.86203963 17.91298645 -27.40924417 16.35933695 -24.95703125 14.8046875 C-1.59591961 0 -1.59591961 0 0 0 Z " fill="#FEFEFE" transform="translate(513,288)"/>
<path d="M0 0 C4.43133827 1.70724035 8.42868832 3.88553687 12.5 6.3125 C13.23847168 6.74981445 13.97694336 7.18712891 14.73779297 7.63769531 C21.45723542 11.63666481 28.10552487 15.74892665 34.74438477 19.87988281 C42.58177432 24.75508121 50.46390862 29.55459417 58.36181641 34.33105469 C59.27237793 34.8830957 60.18293945 35.43513672 61.12109375 36.00390625 C61.9195874 36.48674072 62.71808105 36.9695752 63.54077148 37.46704102 C66.40008664 39.24939383 69.1965381 41.1310254 72 43 C72 49.6 72 56.2 72 63 C31.08 63 -9.84 63 -52 63 C-50.12804207 48.0243366 -39.42394641 39.23326447 -29 29 C-27.33252346 27.3341436 -25.66599817 25.66733489 -24 24 C-16 16 -8 8 0 0 Z " fill="#FBFCFE" transform="translate(282,333)"/>
<path d="M0 0 C0 4.92745075 -3.68086383 7.60021193 -7 11 C-9.60508221 13.41026736 -12.27081874 15.7315896 -15 18 C-15.66 17.67 -16.32 17.34 -17 17 C-11.39 11.39 -5.78 5.78 0 0 Z " fill="#125BEF" transform="translate(238,347)"/>
<path d="M0 0 C0.66 0.33 1.32 0.66 2 1 C-0.28560647 2.5306999 -2.57762667 4.04965044 -4.875 5.5625 C-5.52597656 6.00013672 -6.17695313 6.43777344 -6.84765625 6.88867188 C-8.52625497 7.98754836 -10.26023387 9.0007818 -12 10 C-12.66 9.67 -13.32 9.34 -14 9 C-13.01 8.67 -12.02 8.34 -11 8 C-10.26676204 5.98491642 -10.26676204 5.98491642 -10 4 C-8.906875 3.71125 -7.81375 3.4225 -6.6875 3.125 C-2.95986155 2.18106796 -2.95986155 2.18106796 0 0 Z " fill="#1659EE" transform="translate(295,173)"/>
<path d="M0 0 C0.66 0.33 1.32 0.66 2 1 C-0.28819146 2.50554634 -2.58021169 4.00457043 -4.875 5.5 C-5.85146484 6.14388672 -5.85146484 6.14388672 -6.84765625 6.80078125 C-11.7734375 10 -11.7734375 10 -14 10 C-14 9.01 -14 8.02 -14 7 C-12.4840625 6.38125 -12.4840625 6.38125 -10.9375 5.75 C-8.21355485 4.59841343 -5.71685735 3.28036747 -3.1875 1.75 C-2.135625 1.1725 -1.08375 0.595 0 0 Z " fill="#1858EE" transform="translate(353,137)"/>
<path d="M0 0 C0.66 0.33 1.32 0.66 2 1 C1.01 1.33 0.02 1.66 -1 2 C-1.33 2.99 -1.66 3.98 -2 5 C-2.99 5 -3.98 5 -5 5 C-5 5.66 -5 6.32 -5 7 C-6.32 7.33 -7.64 7.66 -9 8 C-7.83917375 4.51752126 -7.09067524 4.11180756 -4.0625 2.25 C-3.35222656 1.80140625 -2.64195312 1.3528125 -1.91015625 0.890625 C-1.27980469 0.59671875 -0.64945313 0.3028125 0 0 Z " fill="#1359EE" transform="translate(249,248)"/>
<path d="M0 0 C4.30764815 1.56641751 8.06171464 3.68336156 12 6 C12 6.33 12 6.66 12 7 C9.75 7.25 9.75 7.25 7 7 C4.875 5.1875 4.875 5.1875 3 3 C2.4225 2.4225 1.845 1.845 1.25 1.25 C0.8375 0.8375 0.425 0.425 0 0 Z " fill="#145CF0" transform="translate(261,296)"/>
<path d="M0 0 C4.43090471 1.20842856 6.98112756 2.51668565 10 6 C7.8125 6.375 7.8125 6.375 5 6 C3.00977164 4.16038352 1.61010101 2.20813852 0 0 Z " fill="#185BF1" transform="translate(276,234)"/>
<path d="M0 0 C0 0.99 0 1.98 0 3 C-2.8125 5.25 -2.8125 5.25 -6 7 C-6.99 6.67 -7.98 6.34 -9 6 C-6.03 4.02 -3.06 2.04 0 0 Z " fill="#1358ED" transform="translate(236,187)"/>
<path d="M0 0 C0 3.60352128 -1.08590249 5.01400788 -3 8 C-3.33 8.66 -3.66 9.32 -4 10 C-4.66 10 -5.32 10 -6 10 C-4.6302836 6.00499382 -2.74277578 3.19990508 0 0 Z " fill="#0F57EF" transform="translate(220,365)"/>
<path d="M0 0 C0.33 0.66 0.66 1.32 1 2 C-3.625 6 -3.625 6 -7 6 C-7 5.34 -7 4.68 -7 4 C-4.69 2.68 -2.38 1.36 0 0 Z " fill="#1557EC" transform="translate(335,126)"/>
</svg>
